PathFileType	4	(X/Y/Z)	67_2_77_p0_0-432_filt_butterworth.trc
DataRate	CameraRate	NumFrames	NumMarkers	Units	OrigDataRate	OrigDataStartFrame	OrigNumFrames
59.0	59.0	5	27	m	59.0	54	432
Frame#	Time	RHip			RKnee			RAnkle			RBigToe			RSmallToe			RHeel			LHip			LKnee			LAnkle			LBigToe			LSmallToe			LHeel			Neck			Head			Nose			RShoulder			RElbow			RWrist			RThumb			RIndex			RPinky			LShoulder			LElbow			LWrist			LThumb			LIndex			LPinky			
		X1	Y1	Z1	X2	Y2	Z2	X3	Y3	Z3	X4	Y4	Z4	X5	Y5	Z5	X6	Y6	Z6	X7	Y7	Z7	X8	Y8	Z8	X9	Y9	Z9	X10	Y10	Z10	X11	Y11	Z11	X12	Y12	Z12	X13	Y13	Z13	X14	Y14	Z14	X15	Y15	Z15	X16	Y16	Z16	X17	Y17	Z17	X18	Y18	Z18	X19	Y19	Z19	X20	Y20	Z20	X21	Y21	Z21	X22	Y22	Z22	X23	Y23	Z23	X24	Y24	Z24	X25	Y25	Z25	X26	Y26	Z26	X27	Y27	Z27	
54	0.9152542372881356	0.39766145056398233	0.5951206568283667	-0.1218633695864213	0.36306781275105954	0.7155145433080229	0.29735269335423514	0.3425265372672272	0.9542227456177974	0.7562380860185791	0.33948792880832934	0.6613765468781824	0.8074619415179951	0.3867915814959911	0.711815556676583	0.8126241779789568	0.3351613874167951	0.9988078018902001	0.8058157396045356	0.20656922460438312	0.5673339617805683	-0.1173174701420232	0.19680928116203228	0.7275767182533371	0.3079436160949914	0.18472725959257663	0.8707116884484787	0.7377011477064945	0.20016735998182178	0.6723361815195842	0.8030003116356917	0.14318124893856943	0.7058264013761457	0.7899966693572593	0.19737725928354194	0.9754668707364001	0.8136571582708703	0.32152851688159695	0.4761808938974153	-0.6662576567072023	0.3464457677990406	0.3130442739930515	-0.8760158700191087	0.34639115331666254	0.3082543931763868	-0.74050006952633	0.4825197462322478	0.501460408394638	-0.5663743050605402	0.4925200407266972	0.5761186347209555	-0.3280017487389789	0.5369598938930972	0.4486128738950117	-0.1526461175640927	0.5671709621080325	0.27458056465349906	-0.08822778419717948	0.5670739629939728	0.2838375123656047	-0.07470973326696326	0.5503778462469945	0.3785495913862177	-0.06083728508156334	0.16950367775080716	0.4513257155166826	-0.5782520411116824	0.1310380117571183	0.5493648919758332	-0.33265277917738506	0.12944565086435658	0.4714387481732622	-0.07227099045227717	0.16543052798357466	0.4621593034499457	0.04171914631511371	0.13816333761113828	0.49666244712441604	0.0707452924779896	0.11010534086639906	0.501379744225898	0.057525006692952185
55	0.9322033898305084	0.3964181218928582	0.5960292418794813	-0.12091494367733689	0.3621525190759086	0.7139373928610064	0.2974427835099469	0.3425669662184355	0.9541406791355562	0.7567244566611477	0.3398595338537973	0.6612492016869844	0.8069008036860259	0.38711678684745165	0.7118414668074818	0.8122197527322657	0.33533799465307	0.9985902490413457	0.8071808791688071	0.20673801226328836	0.5676928067261033	-0.11716758548522194	0.19691969024125874	0.7274830815418717	0.30772224170140344	0.1849612599136283	0.8708109245250462	0.7389504933630879	0.20012350297296977	0.6723965865752415	0.8029986733590461	0.14269477321077534	0.7040808962831611	0.787496307158985	0.19746919686169098	0.9759015543043082	0.815522793196731	0.32155665177712056	0.47688108173954175	-0.6652960967953171	0.3464853650753921	0.3128743935462189	-0.8759595872378942	0.3464106213328845	0.3083435554184404	-0.7404506402221698	0.4812306057617647	0.5067596208765579	-0.566857977582278	0.4920020437476431	0.5781056809966618	-0.32788378112238825	0.5424410983206456	0.4456874161045754	-0.16053400558574893	0.5767596990646571	0.26966225434644603	-0.10817464999957918	0.5774378173190962	0.2804029633690029	-0.0914392876631255	0.5685421892155124	0.3639612372019334	-0.06980919307989737	0.16952127938775194	0.4513374349067216	-0.5782924828665071	0.13105090345963388	0.5509580444636579	-0.3323240682657647	0.12943611869905283	0.4714065439209382	-0.07278753547154473	0.16457812890231682	0.4649123471586799	0.04135719669283465	0.13691101381533433	0.49979439187007374	0.06996098136912007	0.11011666746929893	0.5029068680249192	0.05635156320744993
56	0.9491525423728814	0.39436647216332055	0.5962212422130732	-0.12055002998034763	0.3620525769882326	0.7139486167788878	0.29751872940586843	0.3426802418713864	0.9540317535981714	0.7580720369711252	0.3401682572472617	0.6617599724338866	0.8071537045866498	0.38706039392558805	0.7122397121678713	0.8121492009574866	0.33545448717532117	0.9984208016312623	0.8081891086533398	0.20678851082802954	0.5677423180379153	-0.1171451462709136	0.19705582932276738	0.7273704058739195	0.3076619886098372	0.18514155729477108	0.8708643652549197	0.7405308768313918	0.2000877496038468	0.672590503921014	0.8030317623859491	0.14242756243613447	0.7042970478765915	0.7867171437489127	0.19758005861818723	0.9762155485564947	0.8182258797226482	0.32160141846799745	0.47762042497637314	-0.6640893502870744	0.34656304284007156	0.3125184538514668	-0.8758628496703385	0.3464236411675788	0.30839240006608676	-0.740424481105326	0.4802740055334725	0.5107068996153961	-0.5674114787626655	0.4907327697213804	0.5826465715773216	-0.3293899960395072	0.5479022853374255	0.4411498016113163	-0.17140805769272124	0.5847743434134864	0.2637546755539272	-0.12684592747048504	0.5869585316442939	0.2775724753617832	-0.1105919906770654	0.5835877993470739	0.35113591577739667	-0.08415836880508057	0.16952518351363338	0.4513301900536829	-0.578311175585617	0.1307438930797973	0.5527909506288347	-0.3314231072338728	0.1288296048971604	0.4726428107510052	-0.07380751848580777	0.16452815810316354	0.46519648020723814	0.040801811055943736	0.13646043304666314	0.50130770554164	0.06963650366712787	0.11099963628311195	0.5036225346278659	0.05463551738843424
57	0.9661016949152542	0.3919676665901539	0.5956750790582459	-0.1204086453311136	0.36218711760472494	0.7143073712538829	0.2975552800096524	0.34275607209125075	0.9541572907112932	0.7600028216221485	0.3403321961102558	0.6624011809387493	0.8088442496499387	0.38685476110293243	0.7139195866394301	0.8124950242790909	0.3354986441651414	0.998339115929131	0.8085705722502615	0.2067502291352823	0.5677009460061955	-0.11713661579555565	0.19716682377758984	0.7272889547224682	0.30768924672210124	0.18513932295300015	0.8708776072480491	0.7416021641176485	0.20013641176407154	0.6724932418424576	0.803075833638987	0.14271611787874597	0.7062282315842501	0.7876698813697367	0.19769491051236154	0.9762214540929403	0.8205161796731872	0.32167502440541235	0.4779344328196311	-0.6632793389870149	0.34654674596388335	0.31242139152811205	-0.8758409311688929	0.34642213249098897	0.3084085210134431	-0.7404174513737753	0.47990097176592716	0.5122414844795903	-0.5676550053719436	0.4891433000714945	0.5878988856946681	-0.332055721348233	0.5529866190267809	0.43720460492454294	-0.18404053627223432	0.5943269756263186	0.2537428856263146	-0.1411583101206145	0.5972161357053749	0.2700792992098353	-0.12854352250590273	0.5926806012502146	0.3403772801915501	-0.10319211187174668	0.1695211182050851	0.4512860443458932	-0.5782786080765707	0.12955364558665566	0.5567829320388425	-0.33040075795436724	0.12733727613433718	0.47606469569417004	-0.07505436990062919	0.16453499834428903	0.464841680016362	0.04019887358793614	0.13682566485491535	0.5018111802159522	0.06957978944202088	0.11160608851275383	0.5040263060284021	0.053431509826257294
58	0.9830508474576272	0.38983919269074235	0.5946199216364584	-0.1202896225035084	0.36226427316246246	0.7145117196217124	0.297584785119296	0.3426309466928926	0.9548111140093327	0.7614493819703586	0.3402190826718866	0.6625503705747204	0.8111537700815943	0.3871309750222176	0.7164021143594372	0.8121732709758591	0.3355266692509192	0.9982873165301722	0.8087208080778672	0.20665832723477998	0.5676475449453598	-0.11717865042821785	0.19723469031662103	0.7271918206587696	0.3077427620185562	0.18475303462538095	0.8708490607182027	0.7419419903342772	0.2005613791354396	0.6709436485725099	0.8030934693262113	0.14382622705207368	0.7078922785893529	0.7897458260307629	0.19778081383033613	0.9760902548253567	0.8219086147147848	0.3217651505708549	0.47759048014145794	-0.6633121326676545	0.3461188451301379	0.3136435053642594	-0.8761614527167737	0.34640860637260623	0.3084197231302224	-0.7404223795457608	0.4798463478028163	0.5123091774276943	-0.567549083714089	0.4879433907346098	0.5915217222555375	-0.33484135290630085	0.5573546209884388	0.4360479182553696	-0.1959647278715232	0.607088542998705	0.24220447264767947	-0.152281132312262	0.6083768020258344	0.2576628372763202	-0.14259380077602324	0.5970707255539491	0.3315139686825499	-0.12212834283435078	0.16955113667455765	0.451120410628699	-0.5781902178450795	0.12764879181571295	0.5624654827906151	-0.32985119268191343	0.12540780762648607	0.48081839518182085	-0.07595927038193685	0.1645813377555594	0.46446574883337743	0.03976154729098805	0.13814627864815793	0.5021718717456272	0.06948221152642486	0.11185917900958246	0.5041580081555834	0.0537311121331672
